<mxfile host="Electron" agent="Mozilla/5.0 (Windows NT 10.0; Win64; x64) AppleWebKit/537.36 (KHTML, like Gecko) draw.io/24.7.8 Chrome/128.0.6613.36 Electron/32.0.1 Safari/537.36" version="24.7.8">
  <diagram name="PÃ¡gina-1" id="PYtCjY29P0yI9JZTH59P">
    <mxGraphModel dx="1334" dy="656" grid="1" gridSize="10" guides="1" tooltips="1" connect="1" arrows="1" fold="1" page="0" pageScale="1" pageWidth="827" pageHeight="1169" background="#080808" math="0" shadow="0">
      <root>
        <mxCell id="0" />
        <mxCell id="1" parent="0" />
        <mxCell id="JARVd5J93aHSndr5efD3-2" value="Diagrama de casos de uso" style="text;html=1;align=center;verticalAlign=middle;resizable=0;points=[];autosize=1;strokeColor=none;fillColor=none;fontSize=18;fontStyle=3" parent="1" vertex="1">
          <mxGeometry x="315" y="320" width="240" height="40" as="geometry" />
        </mxCell>
        <mxCell id="5VjyqRqpZeYm6iCLlQdw-100" style="edgeStyle=orthogonalEdgeStyle;rounded=0;orthogonalLoop=1;jettySize=auto;html=1;exitX=1;exitY=0;exitDx=0;exitDy=0;entryX=0.035;entryY=0.7;entryDx=0;entryDy=0;endArrow=none;endFill=0;entryPerimeter=0;" parent="1" source="JARVd5J93aHSndr5efD3-14" target="JARVd5J93aHSndr5efD3-21" edge="1">
          <mxGeometry relative="1" as="geometry">
            <Array as="points">
              <mxPoint x="423" y="600" />
            </Array>
          </mxGeometry>
        </mxCell>
        <mxCell id="5VjyqRqpZeYm6iCLlQdw-101" style="edgeStyle=orthogonalEdgeStyle;rounded=0;orthogonalLoop=1;jettySize=auto;html=1;exitX=0;exitY=0;exitDx=0;exitDy=0;entryX=0;entryY=0.5;entryDx=0;entryDy=0;endArrow=none;endFill=0;" parent="1" source="JARVd5J93aHSndr5efD3-14" target="5VjyqRqpZeYm6iCLlQdw-97" edge="1">
          <mxGeometry relative="1" as="geometry">
            <Array as="points">
              <mxPoint x="370" y="838" />
              <mxPoint x="370" y="440" />
              <mxPoint x="550" y="440" />
            </Array>
          </mxGeometry>
        </mxCell>
        <mxCell id="5VjyqRqpZeYm6iCLlQdw-139" style="edgeStyle=orthogonalEdgeStyle;rounded=0;orthogonalLoop=1;jettySize=auto;html=1;exitX=0.5;exitY=0;exitDx=0;exitDy=0;entryX=0;entryY=1;entryDx=0;entryDy=0;endArrow=none;endFill=0;" parent="1" source="JARVd5J93aHSndr5efD3-14" target="JARVd5J93aHSndr5efD3-18" edge="1">
          <mxGeometry relative="1" as="geometry">
            <Array as="points">
              <mxPoint x="395" y="768" />
              <mxPoint x="562" y="768" />
            </Array>
          </mxGeometry>
        </mxCell>
        <mxCell id="JARVd5J93aHSndr5efD3-14" value="menu" style="ellipse;whiteSpace=wrap;html=1;" parent="1" vertex="1">
          <mxGeometry x="355" y="830" width="80" height="50" as="geometry" />
        </mxCell>
        <mxCell id="JARVd5J93aHSndr5efD3-18" value="Pagina &lt;br&gt;envios" style="ellipse;whiteSpace=wrap;html=1;" parent="1" vertex="1">
          <mxGeometry x="550" y="725" width="80" height="50" as="geometry" />
        </mxCell>
        <mxCell id="JARVd5J93aHSndr5efD3-21" value="Pagina agenda" style="ellipse;whiteSpace=wrap;html=1;" parent="1" vertex="1">
          <mxGeometry x="550" y="565" width="80" height="50" as="geometry" />
        </mxCell>
        <mxCell id="5VjyqRqpZeYm6iCLlQdw-157" style="edgeStyle=orthogonalEdgeStyle;rounded=0;orthogonalLoop=1;jettySize=auto;html=1;exitX=0.5;exitY=0;exitDx=0;exitDy=0;entryX=0.5;entryY=0.5;entryDx=0;entryDy=0;fillColor=#1ba1e2;strokeColor=#006EAF;endArrow=none;endFill=0;entryPerimeter=0;dashed=1;" parent="1" source="JARVd5J93aHSndr5efD3-26" target="5VjyqRqpZeYm6iCLlQdw-17" edge="1">
          <mxGeometry relative="1" as="geometry">
            <Array as="points">
              <mxPoint x="190" y="440" />
              <mxPoint x="-15" y="440" />
            </Array>
          </mxGeometry>
        </mxCell>
        <mxCell id="5VjyqRqpZeYm6iCLlQdw-167" style="edgeStyle=orthogonalEdgeStyle;rounded=0;orthogonalLoop=1;jettySize=auto;html=1;exitX=0.5;exitY=0;exitDx=0;exitDy=0;entryX=0.5;entryY=1;entryDx=0;entryDy=0;endArrow=none;endFill=0;dashed=1;" parent="1" source="JARVd5J93aHSndr5efD3-41" target="5VjyqRqpZeYm6iCLlQdw-97" edge="1">
          <mxGeometry relative="1" as="geometry">
            <Array as="points">
              <mxPoint x="530" y="470" />
              <mxPoint x="590" y="470" />
            </Array>
          </mxGeometry>
        </mxCell>
        <mxCell id="5VjyqRqpZeYm6iCLlQdw-108" style="edgeStyle=orthogonalEdgeStyle;rounded=0;orthogonalLoop=1;jettySize=auto;html=1;exitX=0.5;exitY=0;exitDx=0;exitDy=0;entryX=0.5;entryY=1;entryDx=0;entryDy=0;endArrow=none;endFill=0;dashed=1;" parent="1" source="5VjyqRqpZeYm6iCLlQdw-7" target="5VjyqRqpZeYm6iCLlQdw-97" edge="1">
          <mxGeometry relative="1" as="geometry">
            <Array as="points">
              <mxPoint x="430" y="470" />
              <mxPoint x="590" y="470" />
            </Array>
          </mxGeometry>
        </mxCell>
        <mxCell id="5VjyqRqpZeYm6iCLlQdw-166" style="edgeStyle=orthogonalEdgeStyle;rounded=0;orthogonalLoop=1;jettySize=auto;html=1;exitX=0.5;exitY=0;exitDx=0;exitDy=0;entryX=0.5;entryY=1;entryDx=0;entryDy=0;endArrow=none;endFill=0;dashed=1;" parent="1" source="5VjyqRqpZeYm6iCLlQdw-10" target="5VjyqRqpZeYm6iCLlQdw-97" edge="1">
          <mxGeometry relative="1" as="geometry">
            <Array as="points">
              <mxPoint x="635" y="470" />
              <mxPoint x="590" y="470" />
            </Array>
          </mxGeometry>
        </mxCell>
        <mxCell id="5VjyqRqpZeYm6iCLlQdw-83" style="edgeStyle=orthogonalEdgeStyle;rounded=0;orthogonalLoop=1;jettySize=auto;html=1;exitX=0.5;exitY=0.5;exitDx=0;exitDy=0;exitPerimeter=0;entryX=0;entryY=0.5;entryDx=0;entryDy=0;endArrow=none;endFill=0;fillColor=#b0e3e6;strokeColor=#0e8088;" parent="1" source="5VjyqRqpZeYm6iCLlQdw-17" target="5VjyqRqpZeYm6iCLlQdw-21" edge="1">
          <mxGeometry relative="1" as="geometry">
            <Array as="points">
              <mxPoint x="-15" y="1035" />
            </Array>
          </mxGeometry>
        </mxCell>
        <mxCell id="5VjyqRqpZeYm6iCLlQdw-96" style="edgeStyle=orthogonalEdgeStyle;rounded=0;orthogonalLoop=1;jettySize=auto;html=1;exitX=0.5;exitY=0.5;exitDx=0;exitDy=0;exitPerimeter=0;entryX=0;entryY=0.5;entryDx=0;entryDy=0;endArrow=none;endFill=0;fillColor=#b0e3e6;strokeColor=#0e8088;" parent="1" source="5VjyqRqpZeYm6iCLlQdw-17" target="JARVd5J93aHSndr5efD3-18" edge="1">
          <mxGeometry relative="1" as="geometry">
            <Array as="points">
              <mxPoint x="-15" y="440" />
              <mxPoint x="40" y="440" />
              <mxPoint x="40" y="750" />
            </Array>
          </mxGeometry>
        </mxCell>
        <mxCell id="5VjyqRqpZeYm6iCLlQdw-102" style="edgeStyle=orthogonalEdgeStyle;rounded=0;orthogonalLoop=1;jettySize=auto;html=1;exitX=0.5;exitY=0.5;exitDx=0;exitDy=0;exitPerimeter=0;entryX=0;entryY=0.5;entryDx=0;entryDy=0;endArrow=none;endFill=0;fillColor=#b0e3e6;strokeColor=#0e8088;" parent="1" source="5VjyqRqpZeYm6iCLlQdw-17" target="5VjyqRqpZeYm6iCLlQdw-97" edge="1">
          <mxGeometry relative="1" as="geometry" />
        </mxCell>
        <mxCell id="5VjyqRqpZeYm6iCLlQdw-103" style="edgeStyle=orthogonalEdgeStyle;rounded=0;orthogonalLoop=1;jettySize=auto;html=1;exitX=0.5;exitY=0.5;exitDx=0;exitDy=0;exitPerimeter=0;entryX=0;entryY=0.5;entryDx=0;entryDy=0;endArrow=none;endFill=0;fillColor=#b0e3e6;strokeColor=#0e8088;" parent="1" source="5VjyqRqpZeYm6iCLlQdw-17" target="JARVd5J93aHSndr5efD3-21" edge="1">
          <mxGeometry relative="1" as="geometry" />
        </mxCell>
        <mxCell id="5VjyqRqpZeYm6iCLlQdw-104" style="edgeStyle=orthogonalEdgeStyle;rounded=0;orthogonalLoop=1;jettySize=auto;html=1;exitX=0.5;exitY=0.5;exitDx=0;exitDy=0;exitPerimeter=0;entryX=0;entryY=0.5;entryDx=0;entryDy=0;endArrow=none;endFill=0;fillColor=#b0e3e6;strokeColor=#0e8088;" parent="1" source="5VjyqRqpZeYm6iCLlQdw-17" target="JARVd5J93aHSndr5efD3-18" edge="1">
          <mxGeometry relative="1" as="geometry" />
        </mxCell>
        <mxCell id="5VjyqRqpZeYm6iCLlQdw-17" value="ADMINISTRADOR" style="shape=umlActor;verticalLabelPosition=bottom;verticalAlign=top;html=1;" parent="1" vertex="1">
          <mxGeometry x="-30" y="400" width="30" height="60" as="geometry" />
        </mxCell>
        <mxCell id="5VjyqRqpZeYm6iCLlQdw-91" style="edgeStyle=orthogonalEdgeStyle;rounded=0;orthogonalLoop=1;jettySize=auto;html=1;exitX=0.5;exitY=0;exitDx=0;exitDy=0;entryX=0.5;entryY=1;entryDx=0;entryDy=0;endArrow=classic;endFill=1;" parent="1" source="5VjyqRqpZeYm6iCLlQdw-21" target="JARVd5J93aHSndr5efD3-14" edge="1">
          <mxGeometry relative="1" as="geometry" />
        </mxCell>
        <mxCell id="5VjyqRqpZeYm6iCLlQdw-21" value="Iniciar sesion" style="ellipse;whiteSpace=wrap;html=1;" parent="1" vertex="1">
          <mxGeometry x="355" y="1010" width="80" height="50" as="geometry" />
        </mxCell>
        <mxCell id="5VjyqRqpZeYm6iCLlQdw-144" style="edgeStyle=orthogonalEdgeStyle;rounded=0;orthogonalLoop=1;jettySize=auto;html=1;exitX=1;exitY=0.5;exitDx=0;exitDy=0;entryX=0.5;entryY=1;entryDx=0;entryDy=0;endArrow=none;endFill=0;dashed=1;" parent="1" source="5VjyqRqpZeYm6iCLlQdw-24" target="5VjyqRqpZeYm6iCLlQdw-21" edge="1">
          <mxGeometry relative="1" as="geometry" />
        </mxCell>
        <mxCell id="5VjyqRqpZeYm6iCLlQdw-24" value="Crear usuario" style="ellipse;whiteSpace=wrap;html=1;" parent="1" vertex="1">
          <mxGeometry x="270" y="1040" width="80" height="50" as="geometry" />
        </mxCell>
        <mxCell id="5VjyqRqpZeYm6iCLlQdw-145" style="edgeStyle=orthogonalEdgeStyle;rounded=0;orthogonalLoop=1;jettySize=auto;html=1;exitX=0;exitY=0.5;exitDx=0;exitDy=0;entryX=0.5;entryY=1;entryDx=0;entryDy=0;endArrow=none;endFill=0;dashed=1;" parent="1" source="5VjyqRqpZeYm6iCLlQdw-26" target="5VjyqRqpZeYm6iCLlQdw-21" edge="1">
          <mxGeometry relative="1" as="geometry" />
        </mxCell>
        <mxCell id="5VjyqRqpZeYm6iCLlQdw-26" value="Olvide contraseÃ±a" style="ellipse;whiteSpace=wrap;html=1;" parent="1" vertex="1">
          <mxGeometry x="440" y="1040" width="80" height="50" as="geometry" />
        </mxCell>
        <mxCell id="5VjyqRqpZeYm6iCLlQdw-41" value="Inventario" style="shape=umlActor;verticalLabelPosition=bottom;verticalAlign=top;html=1;" parent="1" vertex="1">
          <mxGeometry x="880" y="400" width="30" height="60" as="geometry" />
        </mxCell>
        <mxCell id="5VjyqRqpZeYm6iCLlQdw-85" style="edgeStyle=orthogonalEdgeStyle;rounded=0;orthogonalLoop=1;jettySize=auto;html=1;exitX=0.5;exitY=0.5;exitDx=0;exitDy=0;exitPerimeter=0;endArrow=none;endFill=0;fillColor=#fad9d5;strokeColor=#ae4132;" parent="1" source="5VjyqRqpZeYm6iCLlQdw-42" edge="1">
          <mxGeometry relative="1" as="geometry">
            <mxPoint x="830" y="770" as="targetPoint" />
          </mxGeometry>
        </mxCell>
        <mxCell id="5VjyqRqpZeYm6iCLlQdw-42" value="Agenda" style="shape=umlActor;verticalLabelPosition=bottom;verticalAlign=top;html=1;" parent="1" vertex="1">
          <mxGeometry x="880" y="560" width="30" height="60" as="geometry" />
        </mxCell>
        <mxCell id="5VjyqRqpZeYm6iCLlQdw-86" style="edgeStyle=orthogonalEdgeStyle;rounded=0;orthogonalLoop=1;jettySize=auto;html=1;exitX=0.5;exitY=0.5;exitDx=0;exitDy=0;exitPerimeter=0;endArrow=none;endFill=0;fillColor=#fad9d5;strokeColor=#ae4132;" parent="1" source="5VjyqRqpZeYm6iCLlQdw-43" edge="1">
          <mxGeometry relative="1" as="geometry">
            <mxPoint x="830" y="900" as="targetPoint" />
          </mxGeometry>
        </mxCell>
        <mxCell id="5VjyqRqpZeYm6iCLlQdw-43" value="Envio" style="shape=umlActor;verticalLabelPosition=bottom;verticalAlign=top;html=1;" parent="1" vertex="1">
          <mxGeometry x="880" y="720" width="30" height="60" as="geometry" />
        </mxCell>
        <mxCell id="5VjyqRqpZeYm6iCLlQdw-84" style="edgeStyle=orthogonalEdgeStyle;rounded=0;orthogonalLoop=1;jettySize=auto;html=1;exitX=1;exitY=0.5;exitDx=0;exitDy=0;entryX=0.5;entryY=0.5;entryDx=0;entryDy=0;entryPerimeter=0;endArrow=none;endFill=0;fillColor=#fad9d5;strokeColor=#ae4132;" parent="1" source="5VjyqRqpZeYm6iCLlQdw-21" target="5VjyqRqpZeYm6iCLlQdw-41" edge="1">
          <mxGeometry relative="1" as="geometry">
            <Array as="points">
              <mxPoint x="830" y="1030" />
              <mxPoint x="830" y="430" />
            </Array>
          </mxGeometry>
        </mxCell>
        <mxCell id="5VjyqRqpZeYm6iCLlQdw-97" value="Pagina inventario" style="ellipse;whiteSpace=wrap;html=1;" parent="1" vertex="1">
          <mxGeometry x="550" y="405" width="80" height="50" as="geometry" />
        </mxCell>
        <mxCell id="5VjyqRqpZeYm6iCLlQdw-120" style="edgeStyle=orthogonalEdgeStyle;rounded=0;orthogonalLoop=1;jettySize=auto;html=1;exitX=0.5;exitY=0;exitDx=0;exitDy=0;entryX=0.5;entryY=1;entryDx=0;entryDy=0;endArrow=none;endFill=0;" parent="1" source="5VjyqRqpZeYm6iCLlQdw-116" target="JARVd5J93aHSndr5efD3-21" edge="1">
          <mxGeometry relative="1" as="geometry">
            <Array as="points">
              <mxPoint x="470" y="630" />
              <mxPoint x="590" y="630" />
            </Array>
          </mxGeometry>
        </mxCell>
        <mxCell id="5VjyqRqpZeYm6iCLlQdw-116" value="AÃ±adir direccion" style="ellipse;whiteSpace=wrap;html=1;" parent="1" vertex="1">
          <mxGeometry x="430" y="650" width="80" height="50" as="geometry" />
        </mxCell>
        <mxCell id="5VjyqRqpZeYm6iCLlQdw-122" style="edgeStyle=orthogonalEdgeStyle;rounded=0;orthogonalLoop=1;jettySize=auto;html=1;exitX=0.5;exitY=0;exitDx=0;exitDy=0;entryX=0.5;entryY=1;entryDx=0;entryDy=0;endArrow=none;endFill=0;" parent="1" source="5VjyqRqpZeYm6iCLlQdw-117" target="JARVd5J93aHSndr5efD3-21" edge="1">
          <mxGeometry relative="1" as="geometry">
            <Array as="points">
              <mxPoint x="550" y="630" />
              <mxPoint x="590" y="630" />
            </Array>
          </mxGeometry>
        </mxCell>
        <mxCell id="5VjyqRqpZeYm6iCLlQdw-117" value="AÃ±adir producto" style="ellipse;whiteSpace=wrap;html=1;" parent="1" vertex="1">
          <mxGeometry x="510" y="650" width="80" height="50" as="geometry" />
        </mxCell>
        <mxCell id="5VjyqRqpZeYm6iCLlQdw-123" style="edgeStyle=orthogonalEdgeStyle;rounded=0;orthogonalLoop=1;jettySize=auto;html=1;exitX=0.5;exitY=0;exitDx=0;exitDy=0;entryX=0.5;entryY=1;entryDx=0;entryDy=0;endArrow=none;endFill=0;" parent="1" source="5VjyqRqpZeYm6iCLlQdw-118" target="JARVd5J93aHSndr5efD3-21" edge="1">
          <mxGeometry relative="1" as="geometry">
            <Array as="points">
              <mxPoint x="630" y="630" />
              <mxPoint x="590" y="630" />
            </Array>
          </mxGeometry>
        </mxCell>
        <mxCell id="5VjyqRqpZeYm6iCLlQdw-118" value="AÃ±adir valor envio" style="ellipse;whiteSpace=wrap;html=1;" parent="1" vertex="1">
          <mxGeometry x="590" y="650" width="80" height="50" as="geometry" />
        </mxCell>
        <mxCell id="5VjyqRqpZeYm6iCLlQdw-124" style="edgeStyle=orthogonalEdgeStyle;rounded=0;orthogonalLoop=1;jettySize=auto;html=1;exitX=0.5;exitY=0;exitDx=0;exitDy=0;entryX=0.5;entryY=1;entryDx=0;entryDy=0;endArrow=none;endFill=0;" parent="1" source="5VjyqRqpZeYm6iCLlQdw-119" target="JARVd5J93aHSndr5efD3-21" edge="1">
          <mxGeometry relative="1" as="geometry">
            <Array as="points">
              <mxPoint x="710" y="630" />
              <mxPoint x="590" y="630" />
            </Array>
          </mxGeometry>
        </mxCell>
        <mxCell id="5VjyqRqpZeYm6iCLlQdw-119" value="Subir pedido" style="ellipse;whiteSpace=wrap;html=1;" parent="1" vertex="1">
          <mxGeometry x="670" y="650" width="80" height="50" as="geometry" />
        </mxCell>
        <mxCell id="5VjyqRqpZeYm6iCLlQdw-134" style="edgeStyle=orthogonalEdgeStyle;rounded=0;orthogonalLoop=1;jettySize=auto;html=1;exitX=0.5;exitY=0;exitDx=0;exitDy=0;entryX=0.5;entryY=1;entryDx=0;entryDy=0;endArrow=none;endFill=0;" parent="1" source="5VjyqRqpZeYm6iCLlQdw-131" target="JARVd5J93aHSndr5efD3-18" edge="1">
          <mxGeometry relative="1" as="geometry">
            <Array as="points">
              <mxPoint x="480" y="790" />
              <mxPoint x="590" y="790" />
            </Array>
          </mxGeometry>
        </mxCell>
        <mxCell id="5VjyqRqpZeYm6iCLlQdw-136" style="edgeStyle=orthogonalEdgeStyle;rounded=0;orthogonalLoop=1;jettySize=auto;html=1;exitX=0.5;exitY=0;exitDx=0;exitDy=0;entryX=0.5;entryY=1;entryDx=0;entryDy=0;endArrow=none;endFill=0;" parent="1" source="5VjyqRqpZeYm6iCLlQdw-132" target="JARVd5J93aHSndr5efD3-18" edge="1">
          <mxGeometry relative="1" as="geometry" />
        </mxCell>
        <mxCell id="5VjyqRqpZeYm6iCLlQdw-138" style="edgeStyle=orthogonalEdgeStyle;rounded=0;orthogonalLoop=1;jettySize=auto;html=1;exitX=0.5;exitY=0;exitDx=0;exitDy=0;entryX=0.5;entryY=1;entryDx=0;entryDy=0;endArrow=none;endFill=0;" parent="1" source="5VjyqRqpZeYm6iCLlQdw-133" target="JARVd5J93aHSndr5efD3-18" edge="1">
          <mxGeometry relative="1" as="geometry">
            <Array as="points">
              <mxPoint x="660" y="790" />
              <mxPoint x="590" y="790" />
            </Array>
          </mxGeometry>
        </mxCell>
        <mxCell id="5VjyqRqpZeYm6iCLlQdw-156" style="edgeStyle=orthogonalEdgeStyle;rounded=0;orthogonalLoop=1;jettySize=auto;html=1;exitX=0.5;exitY=1;exitDx=0;exitDy=0;entryX=0.5;entryY=0;entryDx=0;entryDy=0;endArrow=none;endFill=0;dashed=1;" parent="1" source="5VjyqRqpZeYm6iCLlQdw-155" target="5VjyqRqpZeYm6iCLlQdw-21" edge="1">
          <mxGeometry relative="1" as="geometry" />
        </mxCell>
        <mxCell id="5VjyqRqpZeYm6iCLlQdw-155" value="Cerrar sesion" style="ellipse;whiteSpace=wrap;html=1;" parent="1" vertex="1">
          <mxGeometry x="270" y="830" width="80" height="50" as="geometry" />
        </mxCell>
        <mxCell id="5VjyqRqpZeYm6iCLlQdw-160" style="edgeStyle=orthogonalEdgeStyle;rounded=0;orthogonalLoop=1;jettySize=auto;html=1;exitX=1;exitY=0.5;exitDx=0;exitDy=0;entryX=0.5;entryY=0.5;entryDx=0;entryDy=0;entryPerimeter=0;endArrow=none;endFill=0;startArrow=classic;startFill=1;" parent="1" source="JARVd5J93aHSndr5efD3-21" target="5VjyqRqpZeYm6iCLlQdw-42" edge="1">
          <mxGeometry relative="1" as="geometry" />
        </mxCell>
        <mxCell id="5VjyqRqpZeYm6iCLlQdw-161" style="edgeStyle=orthogonalEdgeStyle;rounded=0;orthogonalLoop=1;jettySize=auto;html=1;entryX=0.5;entryY=0.5;entryDx=0;entryDy=0;entryPerimeter=0;endArrow=none;endFill=0;startArrow=classic;startFill=1;" parent="1" source="JARVd5J93aHSndr5efD3-18" target="5VjyqRqpZeYm6iCLlQdw-43" edge="1">
          <mxGeometry relative="1" as="geometry" />
        </mxCell>
        <mxCell id="5VjyqRqpZeYm6iCLlQdw-162" style="edgeStyle=orthogonalEdgeStyle;rounded=0;orthogonalLoop=1;jettySize=auto;html=1;exitX=1;exitY=0.5;exitDx=0;exitDy=0;entryX=0.5;entryY=0.5;entryDx=0;entryDy=0;entryPerimeter=0;endArrow=none;endFill=0;startArrow=classic;startFill=1;" parent="1" source="5VjyqRqpZeYm6iCLlQdw-97" target="5VjyqRqpZeYm6iCLlQdw-41" edge="1">
          <mxGeometry relative="1" as="geometry" />
        </mxCell>
        <mxCell id="8h5oTibNZ6WTUCsu3NCG-8" value="" style="swimlane;startSize=0;strokeWidth=3;" parent="1" vertex="1">
          <mxGeometry x="50" y="380" width="800" height="720" as="geometry">
            <mxRectangle x="50" y="380" width="50" height="40" as="alternateBounds" />
          </mxGeometry>
        </mxCell>
        <mxCell id="5VjyqRqpZeYm6iCLlQdw-131" value="Envio exitoso" style="ellipse;whiteSpace=wrap;html=1;" parent="8h5oTibNZ6WTUCsu3NCG-8" vertex="1">
          <mxGeometry x="390" y="430" width="80" height="50" as="geometry" />
        </mxCell>
        <mxCell id="5VjyqRqpZeYm6iCLlQdw-132" value="Envio fallido" style="ellipse;whiteSpace=wrap;html=1;" parent="8h5oTibNZ6WTUCsu3NCG-8" vertex="1">
          <mxGeometry x="480" y="430" width="80" height="50" as="geometry" />
        </mxCell>
        <mxCell id="5VjyqRqpZeYm6iCLlQdw-133" value="Reportar error" style="ellipse;whiteSpace=wrap;html=1;" parent="8h5oTibNZ6WTUCsu3NCG-8" vertex="1">
          <mxGeometry x="570" y="430" width="80" height="50" as="geometry" />
        </mxCell>
        <mxCell id="Tqi1qMbJSOZz0l3UQUQi-1" value="Mirar numero de envios" style="ellipse;whiteSpace=wrap;html=1;" parent="8h5oTibNZ6WTUCsu3NCG-8" vertex="1">
          <mxGeometry x="660" y="430" width="80" height="50" as="geometry" />
        </mxCell>
        <mxCell id="5VjyqRqpZeYm6iCLlQdw-7" value="Buscar producto" style="ellipse;whiteSpace=wrap;html=1;" parent="8h5oTibNZ6WTUCsu3NCG-8" vertex="1">
          <mxGeometry x="340" y="110" width="80" height="50" as="geometry" />
        </mxCell>
        <mxCell id="JARVd5J93aHSndr5efD3-41" value="Editar cantidad producto" style="ellipse;whiteSpace=wrap;html=1;" parent="8h5oTibNZ6WTUCsu3NCG-8" vertex="1">
          <mxGeometry x="440" y="110" width="80" height="50" as="geometry" />
        </mxCell>
        <mxCell id="5VjyqRqpZeYm6iCLlQdw-10" value="AÃ±adir producto" style="ellipse;whiteSpace=wrap;html=1;" parent="8h5oTibNZ6WTUCsu3NCG-8" vertex="1">
          <mxGeometry x="540" y="110" width="90" height="50" as="geometry" />
        </mxCell>
        <mxCell id="JARVd5J93aHSndr5efD3-26" value="Tener informe de inventario" style="ellipse;whiteSpace=wrap;html=1;" parent="8h5oTibNZ6WTUCsu3NCG-8" vertex="1">
          <mxGeometry x="100" y="75" width="80" height="50" as="geometry" />
        </mxCell>
        <mxCell id="JARVd5J93aHSndr5efD3-44" value="Tener informe de agenda" style="ellipse;whiteSpace=wrap;html=1;" parent="8h5oTibNZ6WTUCsu3NCG-8" vertex="1">
          <mxGeometry x="100" y="170" width="80" height="50" as="geometry" />
        </mxCell>
        <mxCell id="8h5oTibNZ6WTUCsu3NCG-5" value="Tener informe de envios" style="ellipse;whiteSpace=wrap;html=1;" parent="8h5oTibNZ6WTUCsu3NCG-8" vertex="1">
          <mxGeometry x="100" y="290" width="80" height="60" as="geometry" />
        </mxCell>
        <mxCell id="Tqi1qMbJSOZz0l3UQUQi-12" value="ver fecha vencimiento y lote" style="ellipse;whiteSpace=wrap;html=1;" parent="8h5oTibNZ6WTUCsu3NCG-8" vertex="1">
          <mxGeometry x="650" y="110" width="80" height="50" as="geometry" />
        </mxCell>
        <mxCell id="Tqi1qMbJSOZz0l3UQUQi-2" style="edgeStyle=orthogonalEdgeStyle;rounded=0;orthogonalLoop=1;jettySize=auto;html=1;exitX=0.5;exitY=0;exitDx=0;exitDy=0;entryX=0.5;entryY=1;entryDx=0;entryDy=0;endArrow=none;endFill=0;" parent="1" source="Tqi1qMbJSOZz0l3UQUQi-1" target="JARVd5J93aHSndr5efD3-18" edge="1">
          <mxGeometry relative="1" as="geometry">
            <Array as="points">
              <mxPoint x="750" y="790" />
              <mxPoint x="590" y="790" />
            </Array>
          </mxGeometry>
        </mxCell>
        <mxCell id="Tqi1qMbJSOZz0l3UQUQi-13" style="edgeStyle=orthogonalEdgeStyle;rounded=0;orthogonalLoop=1;jettySize=auto;html=1;exitX=0.5;exitY=0;exitDx=0;exitDy=0;entryX=0.5;entryY=1;entryDx=0;entryDy=0;endArrow=none;endFill=0;dashed=1;" parent="1" source="Tqi1qMbJSOZz0l3UQUQi-12" target="5VjyqRqpZeYm6iCLlQdw-97" edge="1">
          <mxGeometry relative="1" as="geometry">
            <Array as="points">
              <mxPoint x="740" y="470" />
              <mxPoint x="590" y="470" />
            </Array>
          </mxGeometry>
        </mxCell>
        <mxCell id="2OUU5FE3A-7C4ICDX4CX-2" style="edgeStyle=orthogonalEdgeStyle;rounded=0;orthogonalLoop=1;jettySize=auto;html=1;exitX=0.5;exitY=0;exitDx=0;exitDy=0;entryX=0.5;entryY=0.5;entryDx=0;entryDy=0;entryPerimeter=0;fillColor=#1ba1e2;strokeColor=#006EAF;endArrow=none;endFill=0;dashed=1;" parent="1" source="JARVd5J93aHSndr5efD3-44" target="5VjyqRqpZeYm6iCLlQdw-17" edge="1">
          <mxGeometry relative="1" as="geometry">
            <Array as="points">
              <mxPoint x="190" y="520" />
              <mxPoint x="-15" y="520" />
            </Array>
          </mxGeometry>
        </mxCell>
        <mxCell id="2OUU5FE3A-7C4ICDX4CX-3" style="edgeStyle=orthogonalEdgeStyle;rounded=0;orthogonalLoop=1;jettySize=auto;html=1;exitX=0.5;exitY=0;exitDx=0;exitDy=0;entryX=0.5;entryY=0.5;entryDx=0;entryDy=0;entryPerimeter=0;fillColor=#1ba1e2;strokeColor=#006EAF;endArrow=none;endFill=0;dashed=1;" parent="1" source="8h5oTibNZ6WTUCsu3NCG-5" target="5VjyqRqpZeYm6iCLlQdw-17" edge="1">
          <mxGeometry relative="1" as="geometry">
            <Array as="points">
              <mxPoint x="190" y="610" />
              <mxPoint x="-15" y="610" />
            </Array>
          </mxGeometry>
        </mxCell>
      </root>
    </mxGraphModel>
  </diagram>
</mxfile>
